<svg version="1.1" viewBox="0.0 0.0 573.9501312335958 137.08136482939634" fill="none" stroke="none" stroke-linecap="square" stroke-miterlimit="10" xmlns:xlink="http://www.w3.org/1999/xlink" xmlns="http://www.w3.org/2000/svg"><clipPath id="p.0"><path d="m0 0l573.95013 0l0 137.08136l-573.95013 0l0 -137.08136z" clip-rule="nonzero"/></clipPath><g clip-path="url(#p.0)"><path fill="#000000" fill-opacity="0.0" d="m0 0l573.95013 0l0 137.08136l-573.95013 0z" fill-rule="evenodd"/><path fill="#000000" fill-opacity="0.0" d="m0 0l623.2756 0l0 100.09449l-623.2756 0z" fill-rule="evenodd"/><path fill="#434343" d="m72.75 66.89437q2.015625 0 2.34375 0.34375q0.34375 0.328125 0.34375 2.34375l0 30.421875q0 1.0625 -0.625 1.828125q-0.625 0.765625 -1.390625 1.15625q-4.609375 1.71875 -9.65625 2.625q-5.03125 0.921875 -10.515625 0.921875q-7.96875 0 -14.734375 -2.453125q-6.765625 -2.4375 -11.671875 -7.09375q-4.890625 -4.65625 -7.625 -11.515625q-2.734375 -6.875 -2.734375 -15.703125q0 -8.0625 2.546875 -14.78125q2.546875 -6.71875 7.296875 -11.609375q4.75 -4.90625 11.5625 -7.640625q6.828125 -2.734375 15.359375 -2.734375q5.375 0 9.359375 0.484375q3.984375 0.46875 8.5 1.90625q1.4375 0.390625 1.15625 1.921875l-0.484375 3.5625q-0.09375 1.234375 -1.4375 0.859375q-4.3125 -1.640625 -8.25 -2.15625q-3.9375 -0.53125 -8.84375 -0.53125q-6.8125 0 -12.328125 2.265625q-5.515625 2.25 -9.40625 6.28125q-3.890625 4.03125 -5.953125 9.703125q-2.0625 5.65625 -2.0625 12.46875q0 7.390625 2.203125 13.15625q2.203125 5.75 6.1875 9.640625q3.984375 3.890625 9.40625 5.90625q5.4375 2.015625 11.953125 2.015625q10.65625 0 15.171875 -2.59375l0 -24.953125l-19.296875 0q-1.34375 0 -1.34375 -1.34375l0 -3.359375q0 -1.34375 1.34375 -1.34375l23.625 0z" fill-rule="nonzero"/><path fill="#434343" d="m95.82446 104.67562q-1.671875 0 -1.953125 -0.28125q-0.28125 -0.28125 -0.28125 -1.953125l0 -55.125q0 -1.515625 0.28125 -1.796875q0.28125 -0.28125 1.796875 -0.28125l27.765625 0q1.125 0 1.125 1.125l0 2.796875q0 1.125 -1.125 1.125l-24.0 0l0 21.109375l22.796875 0q1.125 0 1.125 1.125l0 2.875q0 1.125 -1.125 1.125l-22.796875 0l0 23.046875l24.953125 0q1.125 0 1.125 1.109375l0 2.890625q0 1.109375 -1.125 1.109375l-28.5625 0zm42.642456 -0.875q-1.28125 -0.40625 -1.03125 -1.4375l0.3125 -3.6875q0.15625 -0.640625 0.515625 -0.875q0.375 -0.234375 0.84375 0.078125q2.796875 1.515625 5.640625 2.203125q2.84375 0.671875 6.53125 0.671875q5.828125 0 9.546875 -3.1875q3.71875 -3.203125 3.71875 -9.046875q0 -2.3125 -1.796875 -4.625q-1.796875 -2.328125 -5.0 -4.421875q-2.796875 -1.75 -6.328125 -3.671875q-3.515625 -1.921875 -6.71875 -4.203125q-3.1875 -2.28125 -5.359375 -5.109375q-2.15625 -2.84375 -2.15625 -6.609375q0 -3.84375 1.59375 -6.75q1.609375 -2.921875 4.28125 -4.875q2.6875 -1.96875 6.125 -3.0q3.453125 -1.046875 7.046875 -1.046875q3.125 0 5.515625 0.359375q2.40625 0.359375 5.203125 1.234375q1.203125 0.40625 0.953125 1.4375l-0.625 3.125q-0.25 1.359375 -1.375 0.71875q-2.234375 -1.046875 -4.359375 -1.40625q-2.109375 -0.359375 -5.390625 -0.359375q-2.640625 0 -5.0 0.640625q-2.359375 0.640625 -4.078125 1.921875q-1.71875 1.28125 -2.765625 3.203125q-1.03125 1.921875 -1.03125 4.5625q0 2.078125 1.390625 3.921875q1.40625 1.828125 3.4375 3.4375q2.046875 1.59375 4.40625 2.921875q2.359375 1.3125 4.28125 2.4375q2.640625 1.515625 5.109375 3.125q2.484375 1.59375 4.40625 3.59375q1.921875 2.0 3.125 4.40625q1.203125 2.390625 1.203125 5.515625q0 4.0 -1.640625 7.125q-1.640625 3.109375 -4.375 5.265625q-2.71875 2.171875 -6.28125 3.328125q-3.546875 1.15625 -7.390625 1.15625q-3.515625 0 -6.28125 -0.484375q-2.765625 -0.46875 -6.203125 -1.59375zm61.84996 -53.4375l0 53.109375q0 1.125 -1.125 1.125l-3.6875 0q-1.109375 0 -1.109375 -1.125l0 -53.109375l-16.484375 0q-1.125 0 -1.125 -1.125l0 -2.71875q0 -1.125 1.125 -1.125l39.046875 0q1.109375 0 1.109375 1.125l0 2.71875q0 1.125 -1.109375 1.125l-16.640625 0zm32.06871 33.59375q0 7.609375 3.921875 12.0q4.40625 4.890625 11.765625 4.890625q7.515625 0 11.921875 -4.890625q2.0 -2.15625 2.921875 -5.15625q0.921875 -3.0 0.921875 -6.84375l0 -37.59375q0 -1.125 1.109375 -1.125l3.6875 0q1.109375 0 1.109375 1.125l0 37.59375q0 5.84375 -1.921875 10.28125q-1.90625 4.4375 -5.515625 7.234375q-5.828125 4.40625 -14.234375 4.40625q-8.328125 0 -14.15625 -4.40625q-7.4375 -5.515625 -7.4375 -17.515625l0 -37.59375q0 -1.125 1.109375 -1.125l3.6875 0q1.109375 0 1.109375 1.125l0 37.59375zm82.08182 -21.28125q0 -3.359375 -0.765625 -5.71875q-0.75 -2.359375 -2.546875 -3.828125q-1.796875 -1.484375 -4.6875 -2.125q-2.875 -0.640625 -7.203125 -0.640625l-8.234375 0l0 23.84375l8.40625 0q3.28125 0 6.03125 -0.796875q2.765625 -0.8125 4.765625 -2.328125q2.0 -1.515625 3.109375 -3.640625q1.125 -2.125 1.125 -4.765625zm9.53125 40.796875q0.15625 0.40625 -0.015625 0.765625q-0.15625 0.359375 -0.625 0.359375l-4.171875 0q-1.1875 0 -1.75 -1.125q-3.609375 -7.515625 -6.015625 -12.265625q-2.390625 -4.765625 -3.75 -7.5625q-1.671875 -3.28125 -2.5625 -5.046875q-1.84375 0.40625 -3.40625 0.484375q-1.546875 0.078125 -3.953125 0.15625l-6.71875 0l0 24.234375q0 1.125 -1.125 1.125l-3.59375 0q-1.125 0 -1.125 -1.125l0 -55.671875q0 -0.875 0.03125 -1.359375q0.046875 -0.484375 0.28125 -0.71875q0.25 -0.25 0.734375 -0.28125q0.484375 -0.046875 1.359375 -0.046875l15.125 0q4.546875 0 7.859375 1.25q3.328125 1.234375 5.53125 3.484375q2.203125 2.234375 3.28125 5.4375q1.078125 3.1875 1.078125 7.109375q0 2.40625 -0.84375 4.5625q-0.828125 2.15625 -2.28125 4.0q-1.4375 1.84375 -3.3125 3.328125q-1.875 1.46875 -3.875 2.4375l13.84375 26.46875zm13.025574 1.203125q-1.671875 0 -1.953125 -0.28125q-0.28125 -0.28125 -0.28125 -1.953125l0 -55.125q0 -1.515625 0.28125 -1.796875q0.28125 -0.28125 1.796875 -0.28125l27.765625 0q1.125 0 1.125 1.125l0 2.796875q0 1.125 -1.125 1.125l-24.0 0l0 21.109375l22.796875 0q1.125 0 1.125 1.125l0 2.875q0 1.125 -1.125 1.125l-22.796875 0l0 23.046875l24.953125 0q1.125 0 1.125 1.109375l0 2.890625q0 1.109375 -1.125 1.109375l-28.5625 0z" fill-rule="nonzero"/><path fill="#434343" d="m449.1042 104.33187q-0.28125 0.953125 -1.234375 0.953125l-6.4375 0q-1.0625 0 -1.25 -0.953125l-17.953125 -62.40625q-4.609375 15.65625 -9.125 31.15625q-4.5 15.5 -9.109375 31.25q-0.296875 0.953125 -1.25 0.953125l-6.625 0q-1.0625 0 -1.25 -0.953125l-19.671875 -68.734375q-0.203125 -0.484375 0.078125 -0.90625q0.296875 -0.4375 0.875 -0.4375l4.515625 0q1.34375 0 1.71875 1.34375l17.28125 62.390625q4.515625 -15.734375 9.03125 -30.953125q4.515625 -15.21875 9.015625 -30.96875q0.203125 -0.953125 0.875 -1.375q0.671875 -0.4375 1.53125 -0.4375l4.984375 0q1.640625 0 2.125 1.8125l17.5625 61.546875q4.421875 -15.9375 8.734375 -31.0q4.328125 -15.078125 8.828125 -31.015625q0.203125 -0.578125 0.671875 -0.953125q0.484375 -0.390625 1.0625 -0.390625l4.03125 0q0.578125 0 0.859375 0.4375q0.296875 0.421875 0.09375 0.90625l-19.96875 68.734375z" fill-rule="nonzero"/><path fill="#434343" d="m481.88812 104.67562q-1.671875 0 -1.953125 -0.28125q-0.28125 -0.28125 -0.28125 -1.953125l0 -55.125q0 -1.515625 0.28125 -1.796875q0.28125 -0.28125 1.796875 -0.28125l27.765625 0q1.125 0 1.125 1.125l0 2.796875q0 1.125 -1.125 1.125l-24.0 0l0 21.109375l22.796875 0q1.125 0 1.125 1.125l0 2.875q0 1.125 -1.125 1.125l-22.796875 0l0 23.046875l24.953125 0q1.125 0 1.125 1.109375l0 2.890625q0 1.109375 -1.125 1.109375l-28.5625 0zm70.56433 -44.46875q0 -9.84375 -13.03125 -9.84375l-8.171875 0l0 20.875l6.640625 0q7.28125 0 10.921875 -2.875q3.640625 -2.890625 3.640625 -8.15625zm1.84375 27.828125q0 -5.921875 -4.328125 -8.796875q-4.3125 -2.875 -13.671875 -2.875l-5.203125 0l0 23.203125l6.15625 0q17.046875 0 17.046875 -11.53125zm5.921875 -0.3125q0 16.875 -23.125 16.875l-9.671875 0q-1.6875 0 -1.96875 -0.28125q-0.28125 -0.28125 -0.28125 -1.953125l0 -54.71875q0 -1.6875 0.28125 -1.96875q0.28125 -0.28125 1.96875 -0.28125l12.0 0q18.953125 0 18.953125 14.5625q0 11.125 -10.5625 13.515625q6.078125 1.765625 9.234375 5.328125q3.171875 3.5625 3.171875 8.921875z" fill-rule="nonzero"/></g></svg>